<svg version="1.1" xmlns="http://www.w3.org/2000/svg" xmlns:xlink="http://www.w3.org/1999/xlink">
    <!-- Generator: Sketch 39.1 (31720) - http://www.bohemiancoding.com/sketch -->
    <g id="email" stroke="none" stroke-width="1" fill="none" fill-rule="evenodd">
        <g id="email-icon" transform="translate(0.375000, 0.000000)" fill="#000000">
            <g id="email-group">
                <path d="M29.9479167,0 L1.30208333,0 C0.520833333,0 0,0.520833333 0,1.30208333 L0,5.20833333 C0,5.72916667 0.260416667,6.11979167 0.651041667,6.38020833 L14.9739583,14.1927083 C15.234375,14.3229167 15.3645833,14.3229167 15.625,14.3229167 C15.8854167,14.3229167 16.015625,14.3229167 16.2760417,14.1927083 L30.5989583,6.38020833 C30.9895833,6.11979167 31.25,5.72916667 31.25,5.20833333 L31.25,1.30208333 C31.25,0.520833333 30.7291667,0 29.9479167,0 L29.9479167,0 Z" id="email-shape-1"></path>
                <path d="M17.4479167,15.3645833 C16.9270833,15.7552083 16.2760417,15.8854167 15.625,15.8854167 C14.9739583,15.8854167 14.3229167,15.7552083 13.8020833,15.3645833 L0,7.94270833 L0,23.6979167 C0,24.4791667 0.520833333,25 1.30208333,25 L29.9479167,25 C30.7291667,25 31.25,24.4791667 31.25,23.6979167 L31.25,7.94270833 L17.4479167,15.3645833 L17.4479167,15.3645833 Z" id="email-shape-2"></path>
            </g>
        </g>
    </g>
</svg>
