<svg version="1.1" xmlns="http://www.w3.org/2000/svg" xmlns:xlink="http://www.w3.org/1999/xlink">
    <!-- Generator: Sketch 39.1 (31720) - http://www.bohemiancoding.com/sketch -->
    <g id="facebook" stroke="none" stroke-width="1" fill="none" fill-rule="evenodd">
        <g id="facebook-icon" fill="#000000">
            <path d="M17.4828967,25 L23.3981069,25 C24.27876,25 25,24.282808 25,23.3981069 L25,1.60189308 C25,0.721240044 24.282808,0 23.3981069,0 L1.60189308,0 C0.721240044,0 0,0.717191962 0,1.60189308 L0,23.3981069 C0,24.27876 0.717191962,25 1.60189308,25 L13.0486677,25 L13.0486677,15.165821 L10.8333333,15.165821 L10.8333333,11.4321572 L13.0486677,11.4321572 L13.0486677,9.19047898 C13.0486677,6.14456197 14.2995839,4.33333333 17.8535851,4.33333333 L20.8123905,4.33333333 L20.8123905,8.06741997 L18.9629277,8.06741997 C17.5794432,8.06741997 17.487923,8.58920266 17.487923,9.56299968 L17.4828967,11.4317344 L20.8333333,11.4317344 L20.4412832,15.1653982 L17.4828967,15.1653982 L17.4828967,25 Z" id="facebook-shape"></path>
        </g>
    </g>
</svg>
