<svg version="1.1" xmlns="http://www.w3.org/2000/svg" xmlns:xlink="http://www.w3.org/1999/xlink">
    <!-- Generator: Sketch 39.1 (31720) - http://www.bohemiancoding.com/sketch -->
    <g id="instagram" stroke="none" stroke-width="1" fill="none" fill-rule="evenodd">
        <path d="M11.1337036,0.00381247697 C11.5397324,0.00317706414 11.9927817,0.00381247697 12.5017474,0.00381247697 C16.5734728,0.00381247697 17.0560688,0.018426972 18.663981,0.0914994472 C20.150847,0.15948862 20.9578213,0.407935035 21.4953805,0.616668149 C22.2070429,0.893072729 22.7144201,1.2234874 23.2478491,1.75723418 C23.7815959,2.29098095 24.1120106,2.79931121 24.3890506,3.51097358 C24.5977837,4.04789742 24.8465478,4.85487171 24.9142193,6.34173773 C24.9872917,7.94933218 25.0031771,8.43224593 25.0031771,12.5020651 C25.0031771,16.5718843 24.9872917,17.054798 24.9142193,18.6623925 C24.8462301,20.1492585 24.5977837,20.9562328 24.3890506,21.4931566 C24.112646,22.204819 23.7815959,22.7115607 23.2478491,23.2449898 C22.7141024,23.7787365 22.2073606,24.1091512 21.4953805,24.3855558 C20.9584567,24.595242 20.150847,24.843053 18.663981,24.9110422 C17.0563865,24.9841147 16.5734728,25 12.5017474,25 C8.42970428,25 7.94710824,24.9841147 6.33951378,24.9110422 C4.85264777,24.8424176 4.04567347,24.5939712 3.50779652,24.3852381 C2.79613415,24.1088335 2.28780389,23.7784188 1.75405711,23.2446721 C1.22031034,22.7109253 0.889895665,22.2038659 0.612855672,21.4918858 C0.404122558,20.9549619 0.155358436,20.1479876 0.0876869702,18.6611216 C0.014614495,17.0535272 0,16.5706134 0,12.4982526 C0,8.4258918 0.014614495,7.9455197 0.0876869702,6.33792525 C0.155676143,4.85105923 0.404122558,4.04408494 0.612855672,3.50652569 C0.889260252,2.79486332 1.22031034,2.28653306 1.75405711,1.75278629 C2.28780389,1.21903951 2.79613415,0.88862484 3.50779652,0.611584847 C4.04535577,0.401898614 4.85264777,0.154087611 6.33951378,0.0857807317 C7.74631778,0.022239449 8.29150199,0.00317706414 11.1337036,0 L11.1337036,0.00381247697 Z M19.5233919,3.88392844 C18.6400456,3.88392844 17.9233685,4.59977226 17.9233685,5.48339632 C17.9233685,6.36674259 18.6400456,7.08341976 19.5233919,7.08341976 C20.4067382,7.08341976 21.1234154,6.36674259 21.1234154,5.48339632 C21.1234154,4.60005004 20.4067382,3.88337287 19.5233919,3.88337287 L19.5233919,3.88392844 Z M12.4060654,5.75340027 C8.62462111,5.75340027 5.55874286,8.81927853 5.55874286,12.6007228 C5.55874286,16.3821671 8.62462111,19.4466565 12.4060654,19.4466565 C16.1875097,19.4466565 19.2522768,16.3821671 19.2522768,12.6007228 C19.2522768,8.81927853 16.1872319,5.75340027 12.4057876,5.75340027 L12.4060654,5.75340027 Z M12.4060654,8.15621326 C14.8605458,8.15621326 16.850575,10.1459646 16.850575,12.6007228 C16.850575,15.0552032 14.8605458,17.0452324 12.4060654,17.0452324 C9.95130722,17.0452324 7.96155584,15.0552032 7.96155584,12.6007228 C7.96155584,10.1459646 9.95130722,8.15621326 12.4060654,8.15621326 L12.4060654,8.15621326 Z" id="instagram-shape" fill="#000000"></path>
    </g>
</svg>
