<svg version="1.1" xmlns="http://www.w3.org/2000/svg" xmlns:xlink="http://www.w3.org/1999/xlink">
    <!-- Generator: Sketch 39.1 (31720) - http://www.bohemiancoding.com/sketch -->
    <g id="twitter" stroke="none" stroke-width="1" fill="none" fill-rule="evenodd">
        <path d="M14.6890659,6.65039144 L14.7546421,7.73171194 L13.6617057,7.59930535 C9.68341697,7.09174675 6.20787905,5.37046105 3.25695063,2.47958379 L1.81427451,1.04517905 L1.44267612,2.10443178 C0.655761871,4.46568267 1.15851264,6.95934016 2.79791732,8.63649032 C3.67226648,9.56333646 3.47553792,9.69574306 1.96728561,9.14404892 C1.44267612,8.9675068 0.983642807,8.83510021 0.939925349,8.9013035 C0.786914246,9.05577786 1.31152374,11.0639445 1.72683959,11.8583841 C2.29516655,12.9617723 3.45367919,14.0430928 4.72148547,14.683058 L5.7925632,15.1906166 L4.52475691,15.2126844 C3.30066809,15.2126844 3.25695063,15.2347522 3.388103,15.6981752 C3.82527758,17.13258 5.55211718,18.6552558 7.47568533,19.3172887 L8.83092653,19.7807118 L7.65055516,20.4868803 C5.90185684,21.5019975 3.84713631,22.0757594 1.79241578,22.1198949 C0.808772975,22.1419627 -2.84217094e-14,22.2302338 -2.84217094e-14,22.2964371 C-2.84217094e-14,22.5171147 2.66676494,23.7529096 4.21873471,24.2384004 C8.87464399,25.6728052 14.4049024,25.0549077 18.558061,22.6053858 C21.5089894,20.8620323 24.4599178,17.3973932 25.8370177,14.0430928 C26.5802145,12.2556038 27.3234113,8.98957457 27.3234113,7.42276323 C27.3234113,6.40764602 27.3889875,6.27523943 28.6130763,5.06151234 C29.3344144,4.35534385 30.012035,3.58297206 30.1431873,3.36229441 C30.3617746,2.94300686 30.3399159,2.94300686 29.2251207,3.31815888 C27.3671288,3.98019184 27.104824,3.89192077 28.0228906,2.89887133 C28.7005112,2.19270284 29.5092842,0.912772454 29.5092842,0.537620443 C29.5092842,0.471417147 29.1814033,0.581755974 28.8098049,0.780365862 C28.4163478,1.00104352 27.5419986,1.33206 26.8862367,1.53066988 L25.7058654,1.90582189 L24.6347876,1.17758564 C24.0446019,0.780365862 23.2139702,0.339010555 22.7767957,0.206603963 C21.6620005,-0.102344751 19.9570196,-0.0582092206 18.9515181,0.294875025 C16.2191769,1.28792446 14.4923374,3.84778524 14.6890659,6.65039144 Z" id="twitter-shape" fill="#000000"></path>
    </g>
</svg>
