<svg version="1.1" xmlns="http://www.w3.org/2000/svg" xmlns:xlink="http://www.w3.org/1999/xlink">
    <!-- Generator: Sketch 39.1 (31720) - http://www.bohemiancoding.com/sketch -->
    <g id="unsplash" stroke="none" stroke-width="1" fill="none" fill-rule="evenodd">
        <path d="M14.9978462,11.2396456 C16.2372598,11.2396456 17.2969917,11.6849509 18.1770769,12.5755827 C19.0571655,13.4662109 19.4972029,14.538638 19.4972029,15.7928993 C19.4972029,17.047157 19.0571655,18.1195876 18.1770769,19.0102159 C17.2969917,19.9008441 16.2372598,20.346153 14.9978462,20.346153 C13.7584361,20.346153 12.6987007,19.9008441 11.8186156,19.0102159 C10.9385304,18.1195876 10.498493,17.047157 10.498493,15.7928993 C10.498493,14.538638 10.9385304,13.4662109 11.8186156,12.5755827 C12.6987007,11.6849509 13.7584361,11.2396456 14.9978462,11.2396456 L14.9978462,11.2396456 Z M25.996267,4.66272162 C27.1002815,4.66272162 28.0428467,5.05796538 28.8239871,5.84846351 C29.605131,6.63896519 29.9956959,7.59281843 29.9956959,8.71005863 L29.9956959,22.8757399 C29.9956959,23.9929787 29.605131,24.9468341 28.8239871,25.7373336 C28.0428467,26.5278332 27.1002815,26.9230769 25.996267,26.9230769 L3.99942542,26.9230769 C2.89541229,26.9230769 1.95284849,26.5278332 1.17170671,25.7373336 C0.390564938,24.9468341 0,23.9929787 0,22.8757399 L0,8.71005863 C0,7.59281843 0.390564938,6.63896519 1.17170671,5.84846351 C1.95284849,5.05796538 2.89541229,4.66272162 3.99942542,4.66272162 L7.4989231,4.66272162 L8.29568523,2.51257306 C8.49357483,1.99611357 8.85549638,1.55080476 9.38146738,1.17663599 C9.90743488,0.802463685 10.4464135,0.615384615 10.9984208,0.615384615 L18.9972716,0.615384615 C19.5492789,0.615384615 20.088261,0.802463685 20.6142285,1.17663599 C21.140196,1.55080476 21.5021211,1.99611357 21.7000107,2.51257306 L22.4967693,4.66272162 L25.996267,4.66272162 Z M14.9978462,22.8757399 C16.9246626,22.8757399 18.572849,22.1827442 19.942451,20.796735 C21.3120529,19.4107257 21.9968416,17.7427982 21.9968416,15.7928993 C21.9968416,13.8430003 21.3120529,12.1750693 19.942451,10.7890601 C18.572849,9.40305084 16.9246626,8.71005863 14.9978462,8.71005863 C13.0710298,8.71005863 11.4228469,9.40305084 10.053245,10.7890601 C8.68364305,12.1750693 7.99885084,13.8430003 7.99885084,15.7928993 C7.99885084,17.7427982 8.68364305,19.4107257 10.053245,20.796735 C11.4228469,22.1827442 13.0710298,22.8757399 14.9978462,22.8757399 L14.9978462,22.8757399 Z" fill="#000000"></path>
        <path d="M54.1671844,11.48876 L54.1671844,2.425832 L50.9625004,2.425832 L50.9625004,11.48876 C50.9625004,12.5774054 50.7447746,13.3768674 50.3093164,13.88717 C49.8738582,14.3974726 49.0846021,14.65262 47.9415244,14.65262 C47.2883371,14.65262 46.7678363,14.5607669 46.3800064,14.377058 C45.9921765,14.1933491 45.6894015,13.9552115 45.4716724,13.662638 C45.2539433,13.3700645 45.1110607,13.0332699 45.0430204,12.652244 C44.9749801,12.2712181 44.9409604,11.883394 44.9409604,11.48876 L44.9409604,2.425832 L41.7362764,2.425832 L41.7362764,11.48876 C41.7362764,13.4755379 42.277189,14.9451872 43.3590304,15.897752 C44.4408718,16.8503168 45.9683545,17.326592 47.9415244,17.326592 C49.8874781,17.326592 51.4115589,16.8469148 52.5138124,15.887546 C53.6160659,14.9281772 54.1671844,13.4619299 54.1671844,11.48876 L54.1671844,11.48876 Z M56.7300244,6.446996 L56.7300244,17 L59.6285284,17 L59.6285284,11.468348 C59.6285284,10.3933106 59.8054306,9.62106435 60.1592404,9.151586 C60.5130502,8.68210765 61.0845805,8.447372 61.8738484,8.447372 C62.5678599,8.447372 63.050939,8.66169586 63.3231004,9.09035 C63.5952618,9.51900414 63.7313404,10.1687796 63.7313404,11.039696 L63.7313404,17 L66.6298444,17 L66.6298444,10.508984 C66.6298444,9.85579673 66.572011,9.26045269 66.4563424,8.722934 C66.3406738,8.18541531 66.1399578,7.72955187 65.8541884,7.35533 C65.568419,6.98110813 65.1771929,6.68853905 64.6804984,6.477614 C64.1838039,6.26668895 63.5476363,6.161228 62.7719764,6.161228 C62.1596133,6.161228 61.5608673,6.30070861 60.9757204,6.579674 C60.3905735,6.85863939 59.9142982,7.30429694 59.5468804,7.91666 L59.4856444,7.91666 L59.4856444,6.446996 L56.7300244,6.446996 Z M71.1930604,13.570784 L68.4374404,13.570784 C68.4646566,14.2784035 68.624549,14.8669437 68.9171224,15.336422 C69.2096959,15.8059003 69.5839121,16.1835186 70.0397824,16.469288 C70.4956527,16.7550574 71.0161535,16.9591754 71.6013004,17.081648 C72.1864473,17.2041206 72.7851934,17.265356 73.3975564,17.265356 C73.9963114,17.265356 74.5848515,17.2075226 75.1631944,17.091854 C75.7415373,16.9761854 76.2552342,16.7754694 76.7043004,16.4897 C77.1533667,16.2039306 77.517377,15.8263123 77.7963424,15.356834 C78.0753078,14.8873557 78.2147884,14.3056195 78.2147884,13.611608 C78.2147884,13.1217176 78.1195334,12.7100797 77.9290204,12.376682 C77.7385075,12.0432843 77.486762,11.7643231 77.1737764,11.53979 C76.8607909,11.3152569 76.5035844,11.1349527 76.1021464,10.998872 C75.7007084,10.8627913 75.2890705,10.7471245 74.8672204,10.651868 C74.4589784,10.5566115 74.0575464,10.4681604 73.6629124,10.386512 C73.2682784,10.3048636 72.9178759,10.2130105 72.6116944,10.11095 C72.3055129,10.0088895 72.0571694,9.87621282 71.8666564,9.712916 C71.6761435,9.54961918 71.5808884,9.33869729 71.5808884,9.080144 C71.5808884,8.86241491 71.6353199,8.68891465 71.7441844,8.559638 C71.853049,8.43036135 71.9857256,8.33170434 72.1422184,8.263664 C72.2987112,8.19562366 72.4722115,8.1513981 72.6627244,8.130986 C72.8532374,8.1105739 73.0301396,8.100368 73.1934364,8.100368 C73.710543,8.100368 74.1596025,8.19902501 74.5406284,8.396342 C74.9216543,8.59365899 75.1325762,8.97127721 75.1734004,9.529208 L77.9290204,9.529208 C77.8745881,8.87602073 77.7078918,8.33510814 77.4289264,7.906454 C77.149961,7.47779986 76.7995585,7.13420129 76.3777084,6.875648 C75.9558583,6.61709471 75.4761811,6.43338854 74.9386624,6.324524 C74.4011437,6.21565946 73.8466233,6.161228 73.2750844,6.161228 C72.7035456,6.161228 72.1456231,6.21225749 71.6013004,6.314318 C71.0569777,6.41637851 70.5670946,6.59328074 70.1316364,6.84503 C69.6961782,7.09677926 69.3457757,7.44037782 69.0804184,7.875836 C68.8150611,8.31129418 68.6823844,8.8692166 68.6823844,9.54962 C68.6823844,10.0122943 68.7776395,10.4035204 68.9681524,10.72331 C69.1586654,11.0430996 69.4104109,11.3084529 69.7233964,11.519378 C70.036382,11.7303031 70.3935884,11.9004014 70.7950264,12.029678 C71.1964644,12.1589546 71.6081023,12.2712195 72.0299524,12.366476 C73.0641656,12.5842051 73.8704315,12.8019309 74.4487744,13.01966 C75.0271173,13.2373891 75.3162844,13.5639778 75.3162844,13.999436 C75.3162844,14.2579893 75.255049,14.4723131 75.1325764,14.642414 C75.0101038,14.8125149 74.8570153,14.9485935 74.6733064,15.050654 C74.4895975,15.1527145 74.2854795,15.2275578 74.0609464,15.275186 C73.8364133,15.3228142 73.6220894,15.346628 73.4179684,15.346628 C73.132199,15.346628 72.8566397,15.3126083 72.5912824,15.244568 C72.3259251,15.1765277 72.0911894,15.0710667 71.8870684,14.928182 C71.6829474,14.7852973 71.5162511,14.6015911 71.3869744,14.377058 C71.2576978,14.1525249 71.1930604,13.8837696 71.1930604,13.570784 L71.1930604,13.570784 Z M85.3499164,15.101684 C84.8872421,15.101684 84.4926141,15.006429 84.1660204,14.815916 C83.8394268,14.625403 83.5774754,14.3770595 83.3801584,14.070878 C83.1828414,13.7646965 83.0399589,13.40749 82.9515064,12.999248 C82.863054,12.591006 82.8188284,12.1759661 82.8188284,11.754116 C82.8188284,11.3186578 82.859652,10.896814 82.9413004,10.488572 C83.0229488,10.08033 83.1624294,9.71972156 83.3597464,9.406736 C83.5570634,9.09375044 83.8156128,8.83860299 84.1354024,8.641286 C84.455192,8.44396901 84.853222,8.345312 85.3295044,8.345312 C85.7921787,8.345312 86.1834048,8.44396901 86.5031944,8.641286 C86.822984,8.83860299 87.0849354,9.0971524 87.2890564,9.416942 C87.4931774,9.7367316 87.639462,10.100742 87.7279144,10.508984 C87.8163669,10.917226 87.8605924,11.3322659 87.8605924,11.754116 C87.8605924,12.1759661 87.8197688,12.591006 87.7381204,12.999248 C87.656472,13.40749 87.5169914,13.7646965 87.3196744,14.070878 C87.1223574,14.3770595 86.863808,14.625403 86.5440184,14.815916 C86.2242288,15.006429 85.8261988,15.101684 85.3499164,15.101684 L85.3499164,15.101684 Z M80.0223844,6.446996 L80.0223844,20.694572 L82.9208884,20.694572 L82.9208884,15.693632 L82.9617124,15.693632 C83.3155222,16.2107386 83.7679837,16.6019647 84.3191104,16.867322 C84.8702372,17.1326793 85.4723852,17.265356 86.1255724,17.265356 C86.9012323,17.265356 87.5782235,17.1156695 88.1565664,16.816292 C88.7349093,16.5169145 89.2179885,16.1154825 89.6058184,15.611984 C89.9936484,15.1084855 90.2828155,14.5301513 90.4733284,13.876964 C90.6638414,13.2237767 90.7590964,12.5433835 90.7590964,11.835764 C90.7590964,11.0873203 90.6638414,10.3695054 90.4733284,9.682298 C90.2828155,8.99509056 89.9902464,8.39294259 89.5956124,7.875836 C89.2009784,7.35872941 88.7042914,6.94368956 88.1055364,6.630704 C87.5067814,6.31771844 86.7923686,6.161228 85.9622764,6.161228 C85.3090892,6.161228 84.7103431,6.29050271 84.1660204,6.549056 C83.6216977,6.80760929 83.1726382,7.22264914 82.8188284,7.794188 L82.7780044,7.794188 L82.7780044,6.446996 L80.0223844,6.446996 Z M92.6891644,2.425832 L92.6891644,17 L95.5876684,17 L95.5876684,2.425832 L92.6891644,2.425832 Z M97.8647404,9.692504 C97.9055646,9.0121006 98.0756629,8.44737425 98.3750404,7.998308 C98.6744179,7.54924175 99.0554381,7.18863336 99.5181124,6.916472 C99.9807867,6.64431064 100.501288,6.45039858 101.07963,6.33473 C101.657973,6.21906142 102.23971,6.161228 102.824856,6.161228 C103.355571,6.161228 103.893082,6.19864963 104.437404,6.273494 C104.981727,6.34833837 105.478414,6.49462291 105.92748,6.712352 C106.376547,6.93008109 106.743959,7.23285606 107.029728,7.620686 C107.315498,8.00851594 107.45838,8.5222128 107.45838,9.161792 L107.45838,14.65262 C107.45838,15.1289024 107.485596,15.5847658 107.540028,16.020224 C107.594461,16.4556822 107.689716,16.7822709 107.825796,17 L104.886468,17 C104.832036,16.8367032 104.787811,16.6700069 104.75379,16.499906 C104.71977,16.3298051 104.695956,16.1563049 104.682348,15.9794 C104.219674,16.4556824 103.67536,16.789075 103.049388,16.979588 C102.423417,17.170101 101.783848,17.265356 101.13066,17.265356 C100.627162,17.265356 100.157691,17.2041206 99.7222324,17.081648 C99.2867743,16.9591754 98.9057541,16.7686653 98.5791604,16.510112 C98.2525668,16.2515587 97.9974193,15.92497 97.8137104,15.530336 C97.6300015,15.135702 97.5381484,14.6662307 97.5381484,14.121908 C97.5381484,13.523153 97.6436094,13.0298679 97.8545344,12.642038 C98.0654595,12.2542081 98.3376168,11.9446292 98.6710144,11.713292 C99.0044121,11.4819548 99.3854323,11.3084546 99.8140864,11.192786 C100.242741,11.0771174 100.67479,10.9852643 101.110248,10.917224 C101.545707,10.8491837 101.974354,10.7947522 102.396204,10.753928 C102.818055,10.7131038 103.192271,10.6518684 103.518864,10.57022 C103.845458,10.4885716 104.104007,10.3695028 104.29452,10.21301 C104.485033,10.0565172 104.573484,9.8285855 104.559876,9.529208 C104.559876,9.21622244 104.508847,8.96787892 104.406786,8.78417 C104.304726,8.60046108 104.168647,8.45757851 103.998546,8.355518 C103.828446,8.25345749 103.631132,8.18541817 103.406598,8.151398 C103.182065,8.11737783 102.940526,8.100368 102.681972,8.100368 C102.110434,8.100368 101.661374,8.22283878 101.33478,8.467784 C101.008187,8.71272922 100.817677,9.12096514 100.763244,9.692504 L97.8647404,9.692504 Z M104.559876,11.835764 C104.437404,11.9446285 104.284315,12.0296777 104.100606,12.090914 C103.916898,12.1521503 103.719583,12.2031798 103.508658,12.244004 C103.297733,12.2848282 103.076606,12.3188479 102.845268,12.346064 C102.613931,12.3732801 102.382598,12.4072998 102.15126,12.448124 C101.933531,12.4889482 101.719207,12.5433797 101.508282,12.61142 C101.297357,12.6794603 101.113651,12.7713134 100.957158,12.886982 C100.800666,13.0026506 100.674793,13.1489351 100.579536,13.32584 C100.48428,13.5027449 100.436652,13.7272746 100.436652,13.999436 C100.436652,14.2579893 100.48428,14.4757151 100.579536,14.65262 C100.674793,14.8295249 100.804068,14.9690055 100.967364,15.071066 C101.130661,15.1731265 101.321171,15.2445678 101.5389,15.285392 C101.75663,15.3262162 101.981159,15.346628 102.212496,15.346628 C102.784035,15.346628 103.226291,15.251373 103.539276,15.06086 C103.852262,14.870347 104.083596,14.6424153 104.233284,14.377058 C104.382973,14.1117007 104.474826,13.8429454 104.508846,13.570784 C104.542867,13.2986226 104.559876,13.0808968 104.559876,12.9176 L104.559876,11.835764 Z M112.06242,13.570784 L109.3068,13.570784 C109.334017,14.2784035 109.493909,14.8669437 109.786482,15.336422 C110.079056,15.8059003 110.453272,16.1835186 110.909142,16.469288 C111.365013,16.7550574 111.885514,16.9591754 112.47066,17.081648 C113.055807,17.2041206 113.654553,17.265356 114.266916,17.265356 C114.865671,17.265356 115.454212,17.2075226 116.032554,17.091854 C116.610897,16.9761854 117.124594,16.7754694 117.57366,16.4897 C118.022727,16.2039306 118.386737,15.8263123 118.665702,15.356834 C118.944668,14.8873557 119.084148,14.3056195 119.084148,13.611608 C119.084148,13.1217176 118.988893,12.7100797 118.79838,12.376682 C118.607867,12.0432843 118.356122,11.7643231 118.043136,11.53979 C117.730151,11.3152569 117.372944,11.1349527 116.971506,10.998872 C116.570068,10.8627913 116.158431,10.7471245 115.73658,10.651868 C115.328338,10.5566115 114.926906,10.4681604 114.532272,10.386512 C114.137638,10.3048636 113.787236,10.2130105 113.481054,10.11095 C113.174873,10.0088895 112.926529,9.87621282 112.736016,9.712916 C112.545503,9.54961918 112.450248,9.33869729 112.450248,9.080144 C112.450248,8.86241491 112.50468,8.68891465 112.613544,8.559638 C112.722409,8.43036135 112.855086,8.33170434 113.011578,8.263664 C113.168071,8.19562366 113.341571,8.1513981 113.532084,8.130986 C113.722597,8.1105739 113.8995,8.100368 114.062796,8.100368 C114.579903,8.100368 115.028963,8.19902501 115.409988,8.396342 C115.791014,8.59365899 116.001936,8.97127721 116.04276,9.529208 L118.79838,9.529208 C118.743948,8.87602073 118.577252,8.33510814 118.298286,7.906454 C118.019321,7.47779986 117.668919,7.13420129 117.247068,6.875648 C116.825218,6.61709471 116.345541,6.43338854 115.808022,6.324524 C115.270504,6.21565946 114.715983,6.161228 114.144444,6.161228 C113.572906,6.161228 113.014983,6.21225749 112.47066,6.314318 C111.926338,6.41637851 111.436455,6.59328074 111.000996,6.84503 C110.565538,7.09677926 110.215136,7.44037782 109.949778,7.875836 C109.684421,8.31129418 109.551744,8.8692166 109.551744,9.54962 C109.551744,10.0122943 109.646999,10.4035204 109.837512,10.72331 C110.028025,11.0430996 110.279771,11.3084529 110.592756,11.519378 C110.905742,11.7303031 111.262948,11.9004014 111.664386,12.029678 C112.065824,12.1589546 112.477462,12.2712195 112.899312,12.366476 C113.933526,12.5842051 114.739792,12.8019309 115.318134,13.01966 C115.896477,13.2373891 116.185644,13.5639778 116.185644,13.999436 C116.185644,14.2579893 116.124409,14.4723131 116.001936,14.642414 C115.879464,14.8125149 115.726375,14.9485935 115.542666,15.050654 C115.358958,15.1527145 115.15484,15.2275578 114.930306,15.275186 C114.705773,15.3228142 114.491449,15.346628 114.287328,15.346628 C114.001559,15.346628 113.726,15.3126083 113.460642,15.244568 C113.195285,15.1765277 112.960549,15.0710667 112.756428,14.928182 C112.552307,14.7852973 112.385611,14.6015911 112.256334,14.377058 C112.127058,14.1525249 112.06242,13.8837696 112.06242,13.570784 L112.06242,13.570784 Z M120.891744,2.425832 L120.891744,17 L123.790248,17 L123.790248,11.468348 C123.790248,10.3933106 123.967151,9.62106435 124.32096,9.151586 C124.67477,8.68210765 125.2463,8.447372 126.035568,8.447372 C126.72958,8.447372 127.212659,8.66169586 127.48482,9.09035 C127.756982,9.51900414 127.89306,10.1687796 127.89306,11.039696 L127.89306,17 L130.791564,17 L130.791564,10.508984 C130.791564,9.85579673 130.733731,9.26045269 130.618062,8.722934 C130.502394,8.18541531 130.301678,7.72955187 130.015908,7.35533 C129.730139,6.98110813 129.338913,6.68853905 128.842218,6.477614 C128.345524,6.26668895 127.709356,6.161228 126.933696,6.161228 C126.389374,6.161228 125.831451,6.30070861 125.259912,6.579674 C124.688374,6.85863939 124.218902,7.30429694 123.851484,7.91666 L123.790248,7.91666 L123.790248,2.425832 L120.891744,2.425832 Z" id="Unsplash" fill="#000000"></path>
        <path d="M88.9761773,21.1639422 L88.896443,21.1639422 C88.697106,21.1639422 88.5600639,21.1373643 88.4853126,21.0842078 C88.4105612,21.0310513 88.3731861,20.9380288 88.3731861,20.8051375 C88.3731861,20.6822131 88.4047473,20.5916822 88.4678707,20.5335423 C88.5309941,20.4754023 88.6256777,20.4463328 88.7519244,20.4463328 L88.9761773,20.4463328 L89.997774,20.4463328 C90.2668789,20.4463328 90.4379738,20.4720801 90.5110641,20.5235755 C90.5841543,20.5750709 90.6206988,20.6689239 90.6206988,20.8051375 C90.6206988,20.9380288 90.5775098,21.0310513 90.4911305,21.0842078 C90.4047511,21.1373643 90.2403006,21.1639422 89.997774,21.1639422 L89.7834879,21.1639422 L89.7834879,23.8948445 C89.7834879,24.2636179 89.8009296,24.5318881 89.8358136,24.6996634 C89.8706975,24.8674386 89.928006,25.0210919 90.0077408,25.1606277 C90.1240207,25.3632869 90.2859795,25.521093 90.4936222,25.6340506 C90.7012648,25.7470082 90.9313294,25.8034861 91.1838228,25.8034861 C91.6589092,25.8034861 92.0052519,25.6606301 92.2228614,25.3749139 C92.4404709,25.0891976 92.549274,24.6274073 92.549274,23.9895291 L92.549274,21.1639422 L92.2851539,21.1639422 C92.0260159,21.1639422 91.8524292,21.1381949 91.7643888,21.0866995 C91.6763483,21.0352041 91.6323287,20.9413511 91.6323287,20.8051375 C91.6323287,20.6689239 91.6672121,20.5750709 91.7369801,20.5235755 C91.806748,20.4720801 91.9512651,20.4463328 92.1705357,20.4463328 L93.2718668,20.4463328 L93.5110699,20.4463328 C93.6306721,20.4463328 93.7212029,20.4762329 93.7826651,20.536034 C93.8441274,20.5958351 93.874858,20.6855353 93.874858,20.8051375 C93.874858,20.9380288 93.8383134,21.0310513 93.7652232,21.0842078 C93.692133,21.1373643 93.5592437,21.1639422 93.3665514,21.1639422 L93.2967838,21.1639422 L93.2967838,24.0991639 C93.2967838,24.9064784 93.1165527,25.5119553 92.7560851,25.9156126 C92.3956174,26.3192699 91.853263,26.5210955 91.1290055,26.5210955 C90.4745159,26.5210955 89.9520948,26.3192699 89.5617267,25.9156126 C89.1713585,25.5119553 88.9761773,24.9679397 88.9761773,24.2835496 L88.9761773,21.1639422 Z M96.0245853,27.6323934 L97.220601,27.6323934 C97.3468477,27.6323934 97.4415313,27.6622934 97.5046547,27.7220945 C97.567778,27.7818956 97.5993393,27.8715959 97.5993393,27.991198 C97.5993393,28.1207671 97.5686086,28.2121284 97.5071464,28.265285 C97.4456842,28.3184415 97.3368811,28.3450193 97.1807338,28.3450193 L94.9830551,28.3450193 C94.8501638,28.3450193 94.7496663,28.3151192 94.6815595,28.2553182 C94.6134527,28.1955171 94.5793998,28.1074779 94.5793998,27.991198 C94.5793998,27.8583068 94.6217583,27.7652842 94.7064765,27.7121277 C94.7911947,27.6589712 94.9481701,27.6323934 95.1774076,27.6323934 L95.2720922,27.6323934 L95.2720922,22.4596258 L95.1774076,22.4596258 C94.9481701,22.4596258 94.7911947,22.4330479 94.7064765,22.3798914 C94.6217583,22.3267349 94.5793998,22.2337124 94.5793998,22.1008211 C94.5793998,21.9845412 94.6134527,21.8973326 94.6815595,21.8391927 C94.7496663,21.7810527 94.8501638,21.7519832 94.9830551,21.7519832 L95.7405316,21.7519832 C95.8402001,21.7519832 95.9124587,21.7685944 95.9573095,21.8018172 C96.0021603,21.83504 96.0245853,21.8865346 96.0245853,21.9563025 L96.0245853,22.4396922 C96.2505005,22.2071324 96.5004985,22.0327152 96.7745868,21.9164353 C97.0486751,21.8001555 97.3435232,21.7420164 97.65914,21.7420164 C98.3269188,21.7420164 98.8850538,21.9679282 99.3335619,22.4197586 C99.78207,22.871589 100.006321,23.4380296 100.006321,24.1190975 C100.006321,24.7735871 99.7936978,25.3117887 99.3684457,25.7337186 C98.9431936,26.1556484 98.4000086,26.3666102 97.7388744,26.3666102 C97.3867125,26.3666102 97.0627948,26.3043183 96.7671117,26.1797327 C96.4714286,26.0551471 96.2239223,25.8765771 96.0245853,25.6440174 L96.0245853,27.6323934 Z M97.5694389,25.6340506 C98.0312361,25.6340506 98.4099706,25.4887029 98.7056537,25.1980032 C99.0013368,24.9073035 99.1491762,24.5310607 99.1491762,24.0692635 C99.1491762,23.6174331 99.0005063,23.2445125 98.703162,22.9504905 C98.4058177,22.6564685 98.0279138,22.5094598 97.5694389,22.5094598 C97.1109639,22.5094598 96.7355517,22.655638 96.4431908,22.9479988 C96.15083,23.2403597 96.0046518,23.6141108 96.0046518,24.0692635 C96.0046518,24.5277384 96.1499994,24.9031507 96.4406991,25.1955115 C96.7313988,25.4878724 97.1076416,25.6340506 97.5694389,25.6340506 L97.5694389,25.6340506 Z M103.157711,20.5509842 L102.310533,20.5509842 C101.988272,20.5509842 101.786446,20.5252369 101.70505,20.4737415 C101.623655,20.4222461 101.582957,20.3283931 101.582957,20.1921795 C101.582957,20.0725773 101.61701,19.9828771 101.685117,19.923076 C101.753224,19.8632749 101.85206,19.8333748 101.981629,19.8333748 L103.626151,19.8333748 C103.715852,19.8333748 103.785619,19.8516471 103.835453,19.8881922 C103.885288,19.9247373 103.910204,19.9745708 103.910204,20.0376941 L103.910204,25.6539842 L105.474991,25.6539842 C105.601238,25.6539842 105.69343,25.6813926 105.75157,25.7362103 C105.80971,25.7910279 105.838779,25.8782365 105.838779,25.9978387 C105.838779,26.1340522 105.810541,26.2279053 105.754062,26.2794007 C105.697583,26.3308961 105.591271,26.3566434 105.435124,26.3566434 L101.757376,26.3566434 C101.627807,26.3566434 101.528971,26.3267433 101.460864,26.2669422 C101.392757,26.2071411 101.358704,26.1174408 101.358704,25.9978387 C101.358704,25.8815588 101.393588,25.7951807 101.463356,25.738702 C101.533124,25.6822232 101.637774,25.6539842 101.77731,25.6539842 L103.157711,25.6539842 L103.157711,20.5509842 Z M109.672896,25.7835525 C110.184527,25.7835525 110.603959,25.6215937 110.931204,25.2976712 C111.258448,24.9737487 111.422068,24.5609613 111.422068,24.0592967 C111.422068,23.5576321 111.257618,23.1431836 110.928712,22.8159388 C110.599806,22.488694 110.181205,22.325074 109.672896,22.325074 C109.164586,22.325074 108.746816,22.488694 108.419571,22.8159388 C108.092326,23.1431836 107.928706,23.5576321 107.928706,24.0592967 C107.928706,24.5642836 108.091495,24.9779015 108.417079,25.3001629 C108.742663,25.6224243 109.161264,25.7835525 109.672896,25.7835525 L109.672896,25.7835525 Z M112.28918,24.0592967 C112.28918,24.7702651 112.046657,25.3516557 111.561604,25.8034861 C111.07655,26.2553165 110.446987,26.4812283 109.672896,26.4812283 C108.902126,26.4812283 108.274224,26.2553165 107.789171,25.8034861 C107.304118,25.3516557 107.061595,24.7702651 107.061595,24.0592967 C107.061595,23.3483283 107.304118,22.7677682 107.789171,22.3175989 C108.274224,21.8674297 108.902126,21.6423484 109.672896,21.6423484 C110.443665,21.6423484 111.072397,21.8682602 111.559112,22.3200906 C112.045826,22.771921 112.28918,23.3516506 112.28918,24.0592967 L112.28918,24.0592967 Z M116.960507,24.1539812 C116.777781,24.0941802 116.600872,24.0501606 116.429775,24.0219212 C116.258677,23.9936818 116.088413,23.9795623 115.918976,23.9795623 C115.407345,23.9795623 115.003694,24.0659403 114.708011,24.238699 C114.412327,24.4114577 114.264488,24.644014 114.264488,24.9363748 C114.264488,25.16229 114.35668,25.348335 114.541067,25.4945154 C114.725453,25.6406958 114.960501,25.713785 115.246218,25.713785 C115.668147,25.713785 116.05934,25.6033207 116.419808,25.382389 C116.780276,25.1614572 116.960507,24.9313926 116.960507,24.6921883 L116.960507,24.1539812 Z M117.000374,25.7237518 C116.727947,25.9696006 116.431437,26.1573068 116.110837,26.2868758 C115.790237,26.4164448 115.460505,26.4812283 115.121633,26.4812283 C114.626613,26.4812283 114.227114,26.3433557 113.923125,26.0676062 C113.619136,25.7918568 113.467144,25.4330557 113.467144,24.9911922 C113.467144,24.4662716 113.66897,24.0592981 114.072627,23.7702596 C114.476285,23.481221 115.043556,23.3367039 115.774458,23.3367039 C115.96715,23.3367039 116.161501,23.3491623 116.357515,23.3740794 C116.55353,23.3989965 116.754525,23.4380327 116.960507,23.4911893 L116.960507,23.4563055 C116.960507,23.074243 116.869145,22.7918533 116.68642,22.6091277 C116.503694,22.4264022 116.219643,22.3350408 115.834259,22.3350408 C115.575121,22.3350408 115.286086,22.4048077 114.967147,22.5443436 C114.648208,22.6838794 114.437246,22.7536463 114.334256,22.7536463 C114.237909,22.7536463 114.158176,22.7146101 114.095053,22.6365364 C114.031929,22.5584628 114.000368,22.4579653 114.000368,22.3350408 C114.000368,22.1390262 114.183921,21.9729145 114.551033,21.836701 C114.918146,21.7004874 115.387411,21.6323816 115.958844,21.6323816 C116.543565,21.6323816 116.985422,21.7810515 117.284428,22.0783958 C117.583433,22.3757401 117.732933,22.8151053 117.732933,23.3965047 L117.732933,25.6539842 L117.97712,25.6539842 C118.213002,25.6539842 118.370808,25.6789009 118.450543,25.7287352 C118.530278,25.7785694 118.570144,25.8682697 118.570144,25.9978387 C118.570144,26.1174408 118.536922,26.2071411 118.470476,26.2669422 C118.404031,26.3267433 118.304364,26.3566434 118.171472,26.3566434 L117.389079,26.3566434 C117.296055,26.3566434 117.219644,26.3284044 117.159843,26.2719256 C117.100041,26.2154468 117.060175,26.1340521 117.040241,26.0277391 L117.000374,25.7237518 Z M123.535492,26.3566434 C123.465724,26.3566434 123.416721,26.3392016 123.388482,26.3043177 C123.360242,26.2694337 123.346123,26.2021585 123.346123,26.10249 L123.346123,25.6938514 C123.146786,25.9430225 122.897618,26.1365426 122.598613,26.2744173 C122.299607,26.412292 121.97569,26.4812283 121.62685,26.4812283 C120.998939,26.4812283 120.473196,26.2578082 120.049605,25.8109612 C119.626014,25.3641143 119.414221,24.8084709 119.414221,24.1440145 C119.414221,23.456302 119.640133,22.8840475 120.091963,22.4272337 C120.543794,21.9704199 121.106912,21.7420164 121.781336,21.7420164 C122.123531,21.7420164 122.430837,21.8026471 122.703264,21.9239104 C122.975691,22.0451737 123.209909,22.2237437 123.405923,22.4596258 L123.405923,20.5509842 L123.141803,20.5509842 C122.852765,20.5509842 122.665889,20.5252369 122.581171,20.4737415 C122.496453,20.4222461 122.454094,20.3283931 122.454094,20.1921795 C122.454094,20.0725773 122.488147,19.9828771 122.556254,19.923076 C122.624361,19.8632749 122.723197,19.8333748 122.852766,19.8333748 L123.874363,19.8333748 C123.974031,19.8333748 124.04629,19.849986 124.091141,19.8832088 C124.135992,19.9164316 124.158417,19.9679262 124.158417,20.0376941 L124.158417,25.6539842 L124.38267,25.6539842 C124.545461,25.6539842 124.663401,25.6813926 124.736491,25.7362103 C124.809581,25.7910279 124.846126,25.8782365 124.846126,25.9978387 C124.846126,26.1107963 124.814564,26.1988354 124.751441,26.2619588 C124.688318,26.3250821 124.603601,26.3566434 124.497288,26.3566434 L123.535492,26.3566434 Z M120.271366,24.1190975 C120.271366,24.5775724 120.419205,24.9529847 120.714888,25.2453455 C121.010571,25.5377063 121.385984,25.6838846 121.841136,25.6838846 C122.299611,25.6838846 122.676685,25.5318924 122.972368,25.2279036 C123.268051,24.9239148 123.41589,24.5377053 123.41589,24.0692635 C123.41589,23.6074662 123.268881,23.2270706 122.974859,22.9280652 C122.680837,22.6290598 122.302934,22.4795594 121.841136,22.4795594 C121.372695,22.4795594 120.99396,22.6307209 120.704921,22.9330486 C120.415883,23.2353763 120.271366,23.630722 120.271366,24.1190975 L120.271366,24.1190975 Z M126.532397,24.2735828 C126.558975,24.7519915 126.720934,25.1215898 127.018278,25.382389 C127.315622,25.6431881 127.721765,25.7735857 128.236719,25.7735857 C128.625426,25.7735857 129.049011,25.669766 129.507486,25.4621233 C129.965961,25.2544807 130.243367,25.1506609 130.339713,25.1506609 C130.439382,25.1506609 130.522438,25.1822221 130.588883,25.2453455 C130.655329,25.3084689 130.688551,25.3865413 130.688551,25.4795652 C130.688551,25.5759114 130.653668,25.6639506 130.5839,25.7436853 C130.514132,25.8234201 130.402837,25.9014926 130.250012,25.9779051 C129.917784,26.1406969 129.574763,26.2652806 129.22094,26.35166 C128.867117,26.4380393 128.515791,26.4812283 128.166952,26.4812283 C127.409471,26.4812283 126.803164,26.2627915 126.348011,25.8259114 C125.892858,25.3890313 125.665286,24.8101323 125.665286,24.0891971 C125.665286,23.3549727 125.906147,22.7602931 126.387878,22.3051404 C126.869609,21.8499878 127.497511,21.6224148 128.271603,21.6224148 C128.972604,21.6224148 129.553995,21.8350377 130.015792,22.2602898 C130.47759,22.685542 130.708485,23.200488 130.708485,23.8051434 C130.708485,23.9911912 130.669449,24.1157749 130.591375,24.1788982 C130.513301,24.2420216 130.301509,24.2735828 129.955992,24.2735828 L129.881241,24.2735828 L126.532397,24.2735828 Z M126.557314,23.6207576 L129.801506,23.6207576 C129.751672,23.225406 129.586391,22.9073023 129.305658,22.6664368 C129.024925,22.4255714 128.680244,22.3051404 128.271603,22.3051404 C127.829739,22.3051404 127.457649,22.4214186 127.155322,22.6539783 C126.852994,22.8865381 126.65366,23.2087946 126.557314,23.6207576 L126.557314,23.6207576 Z M133.909709,25.6539842 L135.564197,25.6539842 C135.693766,25.6539842 135.789281,25.6813926 135.850743,25.7362103 C135.912205,25.7910279 135.942936,25.8782365 135.942936,25.9978387 C135.942936,26.1340522 135.913866,26.2279053 135.855726,26.2794007 C135.797586,26.3308961 135.690444,26.3566434 135.534297,26.3566434 L132.275154,26.3566434 C132.145585,26.3566434 132.04758,26.3267433 131.981134,26.2669422 C131.914688,26.2071411 131.881466,26.1174408 131.881466,25.9978387 C131.881466,25.8815588 131.915519,25.7951807 131.983626,25.738702 C132.051732,25.6822232 132.157213,25.6539842 132.300071,25.6539842 L133.167183,25.6539842 L133.167183,22.4596258 L132.828312,22.4596258 C132.50605,22.4596258 132.305055,22.4338785 132.225321,22.3823831 C132.145586,22.3308877 132.105719,22.2370347 132.105719,22.1008211 C132.105719,21.9845412 132.138111,21.8973326 132.202895,21.8391927 C132.26768,21.7810527 132.366516,21.7519832 132.499407,21.7519832 L133.635622,21.7519832 C133.725324,21.7519832 133.79343,21.7694249 133.839942,21.8043089 C133.886454,21.8391928 133.909709,21.8898569 133.909709,21.9563025 L133.909709,22.8034803 C134.225326,22.4081287 134.554227,22.1141111 134.896422,21.9214187 C135.238617,21.7287264 135.607385,21.6323816 136.002737,21.6323816 C136.29842,21.6323816 136.53762,21.6921818 136.720346,21.811784 C136.903071,21.9313861 136.994433,22.0858699 136.994433,22.27524 C136.994433,22.3981645 136.948752,22.5069676 136.857389,22.6016526 C136.766027,22.6963377 136.665529,22.7436795 136.555894,22.7436795 C136.479481,22.7436795 136.350745,22.6930154 136.16968,22.5916858 C135.988616,22.4903562 135.826657,22.4396922 135.683799,22.4396922 C135.424661,22.4396922 135.151407,22.5318841 134.86403,22.7162708 C134.576653,22.9006575 134.258549,23.1921834 133.909709,23.5908572 L133.909709,25.6539842 Z" id="unsplash-shape" fill="#000000"></path>
    </g>
</svg>
